
<svg xmlns="http://www.w3.org/2000/svg" version="1.0" preserveAspectRatio="xMidYMid meet" width="35px" height="35px" viewBox="177.5 164.36 670.3 667.04">

<g transform="translate(0.000000,1024.000000) scale(0.100000,-0.100000)" fill="#004ebb" stroke="none">
<path d="M4900 8589 c-220 -16 -645 -97 -815 -154 -457 -155 -837 -363 -1154 -633 -567 -484 -969 -1191 -1105 -1942 -44 -245 -50 -320 -51 -640 0 -284 2 -328 23 -450 93 -545 309 -1066 610 -1475 220 -298 373 -456 672 -696 157 -126 615 -375 835 -454 164 -59 174 -62 322 -104 273 -77 580 -116 903 -115 311 0 544 31 846 110 609 159 1127 453 1554 883 163 165 230 245 353 427 198 292 304 505 411 822 70 208 127 438 156 632 18 113 24 625 11 779 -51 580 -308 1233 -680 1726 -200 266 -470 522 -726 690 -377 248 -773 424 -1138 505 -364 81 -721 112 -1027 89z m470 -349 c265 -29 553 -98 752 -181 65 -27 122 -49 127 -49 4 0 42 -22 82 -49 114 -75 191 -166 263 -310 60 -120 131 -333 147 -442 14 -97 6 -300 -15 -400 -51 -235 -199 -517 -398 -757 -102 -123 -301 -319 -450 -443 -300 -250 -736 -501 -1054 -608 -362 -121 -504 -152 -777 -169 -249 -16 -411 10 -727 114 -279 93 -479 205 -672 378 -154 139 -231 256 -278 423 -37 132 -53 280 -40 371 40 280 205 688 393 972 151 226 310 384 628 622 298 223 531 332 954 447 318 86 726 117 1065 81z m1278 -435 c107 -50 309 -226 406 -355 62 -82 137 -239 171 -355 39 -136 59 -333 45 -447 -14 -118 -70 -336 -116 -447 -171 -415 -536 -848 -1039 -1232 -307 -234 -807 -503 -1150 -618 -196 -65 -404 -118 -603 -153 -178 -31 -198 -33 -427 -32 -132 0 -285 6 -340 13 -141 17 -409 76 -544 120 -136 45 -347 147 -411 199 -110 90 -262 248 -308 320 -107 167 -176 387 -146 465 13 36 69 -6 238 -180 186 -191 270 -265 379 -331 106 -64 301 -156 392 -185 342 -108 389 -117 625 -117 347 0 579 36 941 146 190 57 299 99 486 189 203 97 304 155 508 291 443 294 718 559 961 924 179 268 265 504 280 765 8 125 -4 238 -42 395 -51 216 -92 289 -266 465 -102 103 -128 135 -128 157 0 35 18 36 88 3z m803 -742 c92 -96 164 -230 220 -413 30 -99 32 -114 32 -260 0 -177 -15 -274 -69 -450 -71 -228 -159 -410 -302 -623 -140 -209 -224 -310 -442 -528 -265 -266 -604 -531 -890 -698 -335 -195 -756 -372 -1061 -445 -329 -79 -470 -99 -806 -117 -233 -12 -384 -4 -636 32 -227 32 -287 48 -512 136 -193 75 -264 115 -351 196 -86 80 -194 225 -197 263 -5 67 95 43 358 -88 186 -93 495 -187 775 -234 47 -8 164 -18 260 -21 312 -11 621 27 998 122 258 65 343 93 536 180 471 212 817 426 1144 709 114 98 338 324 424 426 226 269 395 552 477 799 59 176 99 452 86 589 -7 74 -51 311 -65 346 -20 53 -38 126 -32 126 4 0 28 -21 53 -47z m479 -825 c36 -84 50 -175 57 -358 6 -194 -3 -290 -43 -446 -48 -189 -153 -436 -250 -591 -589 -939 -1523 -1599 -2555 -1807 -521 -106 -1022 -69 -1509 111 -199 74 -325 138 -445 227 -36 27 115 21 231 -10 184 -48 209 -53 324 -73 515 -88 845 -95 1230 -25 113 20 242 55 430 116 591 192 1131 529 1598 998 378 379 631 762 756 1140 54 164 71 252 85 435 6 77 16 191 22 253 11 107 12 112 29 97 10 -9 28 -39 40 -67z m-1281 -2958 c43 -12 87 -54 101 -94 14 -42 -2 -91 -42 -133 -29 -30 -37 -33 -92 -33 -56 0 -61 2 -98 40 -33 36 -38 47 -38 90 0 56 32 103 85 126 37 16 42 16 84 4z"/>
<path d="M4754 8115 c-432 -49 -670 -131 -1057 -364 -289 -174 -566 -390 -686 -536 -74 -90 -192 -269 -241 -365 -43 -86 -172 -463 -191 -558 -15 -79 -6 -308 15 -372 101 -313 267 -507 561 -658 133 -68 250 -104 449 -138 136 -23 453 -15 611 15 437 83 817 236 1175 474 136 90 197 137 351 268 356 304 589 645 678 991 86 332 24 610 -187 851 -130 148 -296 255 -510 328 -180 62 -692 96 -968 64z m-893 -1214 c128 -49 228 -143 296 -278 43 -87 46 -98 51 -190 6 -122 -8 -191 -59 -293 -73 -146 -183 -240 -327 -279 -223 -60 -467 22 -591 199 -102 145 -137 285 -108 431 42 214 180 368 380 424 80 23 285 15 358 -14z"/>
<path d="M3575 6647 c-56 -14 -146 -106 -168 -171 -9 -27 -17 -66 -17 -86 0 -161 147 -295 303 -277 98 12 202 96 227 185 5 20 10 69 10 108 0 156 -102 256 -259 253 -31 -1 -74 -6 -96 -12z"/>
</g>
</svg>